<svg xmlns="http://www.w3.org/2000/svg" xmlns:xlink="http://www.w3.org/1999/xlink" width="500" zoomAndPan="magnify" viewBox="0 0 375 374.999991" height="500" preserveAspectRatio="xMidYMid meet" version="1.0"><defs><g/><clipPath id="a9dc04d1d3"><path d="M 42 115.34375 L 334 115.34375 L 334 259.34375 L 42 259.34375 Z M 42 115.34375 " clip-rule="nonzero"/></clipPath></defs><g clip-path="url(#a9dc04d1d3)"><path fill="#ffffff" d="M 202.515625 129.152344 C 206.199219 125.679688 208.617188 120.910156 209.027344 115.582031 L 209.140625 115.5625 C 209.605469 121.726562 212.765625 127.089844 217.457031 130.523438 C 244.082031 133.644531 267.097656 139.957031 283.65625 148.367188 C 266.035156 142.460938 244.339844 138.359375 220.433594 136.78125 C 214.144531 140.011719 209.695312 146.34375 209.140625 153.710938 L 209.027344 153.710938 C 208.414062 145.5625 203.015625 138.75 195.648438 136.058594 L 195.371094 136.058594 C 121.132812 136.652344 60.941406 160.804688 60.941406 189.988281 C 60.941406 202.035156 71.195312 213.042969 88.425781 221.804688 C 60.160156 212.339844 42.300781 198.210938 42.300781 182.320312 C 42.300781 134.515625 165.171875 126.589844 202.515625 129.152344 Z M 166.976562 221.507812 L 167.089844 221.507812 C 167.574219 227.746094 170.828125 233.1875 175.628906 236.621094 C 205.0625 236.769531 314.800781 226.96875 314.800781 182.671875 C 314.800781 170.644531 304.550781 159.617188 287.320312 150.871094 C 315.582031 160.339844 333.425781 174.449219 333.425781 190.359375 C 333.425781 237.695312 212.433594 245.808594 176.617188 243.730469 C 171.277344 247.183594 167.609375 252.992188 167.089844 259.660156 L 166.976562 259.660156 C 166.269531 250.339844 159.367188 242.800781 150.363281 241.113281 C 130.695312 238.21875 109.839844 233.316406 92.089844 224.3125 C 110.675781 230.53125 133.785156 234.746094 159.273438 236.117188 C 163.628906 232.609375 166.53125 227.394531 166.976562 221.507812 " fill-opacity="1" fill-rule="evenodd"/></g><path stroke-linecap="butt" transform="matrix(0.887644, -0.117359, 0.117359, 0.887644, 44.449444, 159.26476)" fill="none" stroke-linejoin="miter" d="M 2.800955 55.001526 L 16.799809 54.99968 C 17.578502 55.001418 18.195298 54.330449 18.192711 53.551184 L 18.192131 40.441437 C 18.19387 39.662744 18.807556 39.048572 19.599796 39.047701 L 27.99617 39.048846 C 28.775435 39.046259 29.389035 39.66427 29.387297 40.442963 L 29.389665 53.605755 C 29.387926 54.384448 30.006423 54.998706 30.798092 55.00216 L 44.792621 54.999742 C 45.575639 55.002052 46.188109 54.330511 46.189847 53.551818 L 46.188469 39.715851 C 46.189736 36.411097 43.784128 34.002711 40.474477 34.005198 L 39.982061 34.001703 C 39.189821 34.002575 38.575649 33.388888 38.573062 32.609623 C 38.576516 31.817955 39.190774 31.199458 39.982443 31.202912 L 40.47543 31.202081 C 43.785082 31.199595 46.18857 28.797741 46.190409 25.488661 L 46.189697 19.336396 C 46.190251 14.073238 42.336075 10.205931 37.072917 10.205377 L 2.800125 10.206744 C 2.008457 10.20329 1.394199 10.821787 1.39507 11.614027 L 1.392528 53.605121 C 1.395115 54.384386 2.009287 54.998072 2.800955 55.001526 Z M 19.60351 26.171759 C 18.806945 26.172059 18.193345 25.554047 18.192474 24.761807 C 18.194212 23.983114 18.807898 23.368942 19.600138 23.368071 L 27.996513 23.369215 C 28.775206 23.370954 29.389378 23.98464 29.387639 24.763333 C 29.388511 25.555573 28.774824 26.169745 27.995559 26.172332 Z M 19.60351 26.171759 " stroke="#231f20" stroke-width="11.269819" stroke-opacity="1" stroke-miterlimit="4"/><path stroke-linecap="butt" transform="matrix(0.892108, -0.0763428, 0.0763428, 0.892108, 88.074748, 153.528784)" fill="none" stroke-linejoin="miter" d="M 2.859227 54.99838 L 44.850457 55.001299 C 45.630147 54.997963 46.243084 54.384857 46.244095 53.60554 L 46.244617 42.95665 C 46.245628 42.177333 45.575641 41.563907 44.796324 41.562896 L 19.601585 41.561144 C 18.808855 41.563365 18.196122 40.946081 18.192785 40.166391 C 18.194912 39.374033 18.807849 38.760927 19.600579 38.758707 L 42.605902 38.761381 C 43.385219 38.762391 44.002875 38.145311 44.003886 37.365993 L 44.000464 27.837707 C 44.001475 27.058389 43.331488 26.444963 42.552171 26.443952 L 19.603357 26.446114 C 18.810999 26.443988 18.193546 25.830679 18.194557 25.051361 C 18.192337 24.258631 18.809993 23.641551 19.602351 23.643677 L 44.849995 23.641199 C 45.629312 23.64221 46.24225 23.029104 46.24326 22.249786 L 46.242667 11.613937 C 46.244794 10.821579 45.627713 10.203923 44.848024 10.207259 L 2.804259 10.204223 C 2.007182 10.206071 1.394245 10.819177 1.396465 11.611907 L 1.393174 53.607485 C 1.392163 54.386802 2.079537 55.001716 2.859227 54.99838 Z M 2.859227 54.99838 " stroke="#231f20" stroke-width="11.269819" stroke-opacity="1" stroke-miterlimit="4"/><path stroke-linecap="butt" transform="matrix(0.894528, -0.0388, 0.0388, 0.894528, 131.849103, 149.889057)" fill="none" stroke-linejoin="miter" d="M 2.800511 55.00118 L 16.743895 54.998982 C 17.525602 54.997954 18.194112 54.385027 18.192895 53.607678 L 18.195494 42.070625 C 18.195033 41.275842 18.811239 40.660646 19.601663 40.659996 C 20.38337 40.658967 20.994208 41.274984 20.994669 42.069768 L 20.996429 53.607009 C 20.997646 54.384358 21.612842 55.000564 22.390191 54.999347 L 36.333386 55.001508 C 37.128169 55.001047 37.796868 54.383761 37.795651 53.606412 L 37.794314 47.999344 C 37.794997 47.278847 37.742463 46.879186 37.563886 46.264451 L 33.763944 33.496957 C 33.531341 32.718306 33.600849 32.323939 33.763001 31.706516 L 37.565613 18.941269 C 37.740842 18.324413 37.797641 17.820324 37.793787 17.204434 L 37.796053 11.61499 C 37.795592 10.820207 37.127903 10.20609 36.33312 10.206552 L 22.389924 10.204391 C 21.612576 10.205608 20.99637 10.820804 20.99702 11.611229 L 20.994988 23.135205 C 20.995449 23.929989 20.379243 24.545185 19.601894 24.546402 C 18.8073 24.542505 18.191915 23.930657 18.195813 23.136063 L 18.193486 11.611897 C 18.192836 10.821473 17.525147 10.207356 16.743629 10.204026 L 2.800244 10.206224 C 2.00982 10.206874 1.393614 10.82207 1.394264 11.612494 L 1.396357 17.202128 C 1.39246 17.996722 1.448018 18.326644 1.626595 18.941379 L 5.426538 31.708873 C 5.65914 32.487524 5.602709 32.882458 5.42748 33.499315 L 1.624868 46.264561 C 1.44964 46.881418 1.392841 47.385506 1.392336 48.001207 L 1.393862 53.603917 C 1.39489 54.385624 2.010086 55.00183 2.800511 55.00118 Z M 2.800511 55.00118 " stroke="#231f20" stroke-width="11.269819" stroke-opacity="1" stroke-miterlimit="4"/><path stroke-linecap="butt" transform="matrix(0.895361, 0.00363863, -0.00363863, 0.895361, 168.334534, 148.132183)" fill="none" stroke-linejoin="miter" d="M 2.855824 54.999194 L 16.799219 54.999246 C 17.580159 55.000435 18.192798 54.382796 18.194005 53.606219 L 18.193077 28.686112 C 18.194266 27.905172 18.811233 27.27879 19.600898 27.279943 C 20.38182 27.27677 20.995168 27.906878 20.998341 28.6878 L 20.99535 53.716992 C 20.998293 54.441199 21.668072 55.001274 22.392279 54.99833 L 36.388027 54.99817 C 37.12534 54.999536 37.794925 54.438381 37.796345 53.714156 L 37.794973 28.684982 C 37.79618 27.908405 38.413129 27.27766 39.189706 27.278867 C 39.983734 27.280003 40.597064 27.905748 40.600237 28.68667 L 40.596803 53.606795 C 40.599959 54.383354 41.269968 55.000144 42.046545 55.001351 L 55.989941 55.001402 C 56.770863 54.998229 57.38352 54.384952 57.384709 53.604012 L 57.384209 11.612407 C 57.385345 10.818379 56.715353 10.205952 55.934413 10.204763 L 32.192251 10.205267 C 31.411312 10.204078 30.798885 10.87407 30.797749 11.668097 L 30.798821 19.446902 C 30.797615 20.223479 30.180612 20.841136 29.390947 20.839982 C 28.610007 20.838793 27.996731 20.226136 27.993557 19.445214 L 27.996634 11.614039 C 27.993407 10.820029 27.323398 10.203239 26.546839 10.206395 L 2.800314 10.206917 C 2.010649 10.205764 1.393629 10.819058 1.392493 11.613086 L 1.392993 53.604692 C 1.396167 54.385614 2.079247 54.997987 2.855824 54.999194 Z M 2.855824 54.999194 " stroke="#231f20" stroke-width="11.269819" stroke-opacity="1" stroke-miterlimit="4"/><path stroke-linecap="butt" transform="matrix(0.894183, 0.0460691, -0.0460691, 0.894183, 222.394809, 148.593446)" fill="none" stroke-linejoin="miter" d="M 2.855249 55.001365 L 16.799446 54.999384 C 17.577003 54.998641 18.191977 54.385944 18.195366 53.603806 L 18.19305 45.758072 C 18.192306 44.980515 18.807055 44.363462 19.602265 44.366177 C 20.379822 44.365433 20.995437 45.037047 20.996181 45.814604 L 20.995578 53.603697 C 20.996546 54.385611 21.666107 55.002024 22.443665 55.00128 L 36.387862 54.9993 C 37.183071 55.002015 37.79782 54.384961 37.797077 53.607404 L 37.796723 21.634263 C 37.796488 15.015975 32.983535 10.205203 26.369604 10.205214 L 12.822787 10.204195 C 6.21757 10.203757 1.393727 15.017384 1.393738 21.631314 L 1.394091 53.604456 C 1.39506 54.38637 2.077692 55.002109 2.855249 55.001365 Z M 19.600182 30.928733 C 18.809554 30.93015 18.192276 30.311044 18.195215 29.520192 L 18.19214 25.051359 C 18.194855 24.25615 18.809829 23.643453 19.600457 23.642036 C 20.382371 23.641068 20.995068 24.256041 20.99671 25.051027 L 20.995428 29.520083 C 20.99707 30.315068 20.382096 30.927765 19.600182 30.928733 Z M 19.600182 30.928733 " stroke="#231f20" stroke-width="11.269819" stroke-opacity="1" stroke-miterlimit="4"/><path stroke-linecap="butt" transform="matrix(0.891793, 0.0799434, -0.0799434, 0.891793, 258.579098, 150.479184)" fill="none" stroke-linejoin="miter" d="M 2.800348 54.998155 L 26.37057 55.000885 C 32.984566 54.999313 37.796366 50.187744 37.794794 43.573749 L 37.794689 21.633224 C 37.797462 15.018839 32.985893 10.207039 26.367163 10.204654 L 2.801676 10.20588 C 2.008943 10.20686 1.393582 10.818311 1.394562 11.611044 L 1.392008 53.604466 C 1.396164 54.383773 2.007616 54.999135 2.800348 54.998155 Z M 19.600923 42.125415 C 18.807801 42.122049 18.192004 41.507077 18.192193 40.727381 L 18.195198 24.489627 C 18.194218 23.696894 18.80919 23.081097 19.601923 23.080118 C 20.381619 23.080307 20.997416 23.695278 20.99405 24.4884 L 20.99578 40.73011 C 20.995591 41.509807 20.380619 42.125604 19.600923 42.125415 Z M 19.600923 42.125415 " stroke="#231f20" stroke-width="11.269819" stroke-opacity="1" stroke-miterlimit="4"/><path stroke-linecap="butt" transform="matrix(0.887647, 0.117335, -0.117335, 0.887647, 294.798148, 153.67272)" fill="none" stroke-linejoin="miter" d="M 2.854922 54.999809 L 44.850339 54.997833 C 45.629604 55.000441 46.243793 54.386772 46.242075 53.608079 L 46.242544 42.958374 C 46.245152 42.179109 45.574113 41.563703 44.794848 41.561095 L 19.601401 41.564418 C 18.809161 41.563525 18.195491 40.949337 18.193774 40.170643 C 18.194095 39.374078 18.808283 38.760408 19.600523 38.761301 L 42.607232 38.760992 C 43.385925 38.759275 44.000113 38.145605 44.002721 37.36634 L 44.001925 27.838976 C 44.000208 27.060282 43.333494 26.444305 42.554801 26.446022 L 19.600565 26.443796 C 18.808325 26.442903 18.194656 25.828714 18.192938 25.050021 C 18.193831 24.257781 18.80802 23.644111 19.599688 23.640679 L 44.851077 23.642899 C 45.62977 23.641182 46.243958 23.027512 46.242241 22.248819 L 46.244425 11.61209 C 46.245318 10.81985 45.627323 10.206233 44.848058 10.203625 L 2.803922 10.203239 C 2.007928 10.207243 1.39374 10.820913 1.392847 11.613153 L 1.394251 53.604245 C 1.395968 54.382938 2.076229 55.001526 2.854922 54.999809 Z M 2.854922 54.999809 " stroke="#231f20" stroke-width="11.269819" stroke-opacity="1" stroke-miterlimit="4"/><g fill="#ffffff" fill-opacity="1"><g transform="translate(50.904195, 208.085176)"><g><path d="M 2.484375 -0.328125 L 14.910156 -1.972656 C 15.605469 -2.0625 16.074219 -2.730469 15.980469 -3.425781 L 14.445312 -15.058594 C 14.351562 -15.753906 14.828125 -16.371094 15.523438 -16.464844 L 22.976562 -17.449219 C 23.671875 -17.542969 24.292969 -17.066406 24.382812 -16.371094 L 25.929688 -4.691406 C 26.019531 -3.996094 26.640625 -3.523438 27.335938 -3.613281 L 39.757812 -5.257812 C 40.457031 -5.347656 40.921875 -6.015625 40.832031 -6.714844 L 39.207031 -18.988281 C 38.820312 -21.921875 36.402344 -23.777344 33.46875 -23.386719 L 33.019531 -23.328125 C 32.324219 -23.238281 31.707031 -23.710938 31.613281 -24.40625 C 31.523438 -25.101562 31.996094 -25.722656 32.691406 -25.8125 L 33.140625 -25.871094 C 36.070312 -26.261719 37.925781 -28.679688 37.539062 -31.613281 L 36.816406 -37.078125 C 36.199219 -41.75 32.316406 -44.726562 27.644531 -44.109375 L -2.773438 -40.089844 C -3.46875 -39.996094 -3.941406 -39.375 -3.851562 -38.679688 L 1.078125 -1.40625 C 1.171875 -0.710938 1.789062 -0.238281 2.484375 -0.328125 Z M 14.011719 -27.894531 C 13.316406 -27.804688 12.695312 -28.277344 12.605469 -28.972656 C 12.511719 -29.667969 12.988281 -30.289062 13.683594 -30.378906 L 21.136719 -31.367188 C 21.832031 -31.457031 22.453125 -30.984375 22.542969 -30.289062 C 22.636719 -29.589844 22.160156 -28.972656 21.464844 -28.878906 Z M 14.011719 -27.894531 "/></g></g></g><g fill="#ffffff" fill-opacity="1"><g transform="translate(92.273603, 202.594727)"><g><path d="M 2.546875 -0.21875 L 40.007812 -3.421875 C 40.707031 -3.484375 41.210938 -4.082031 41.152344 -4.78125 L 40.339844 -14.269531 C 40.277344 -14.96875 39.632812 -15.46875 38.933594 -15.40625 L 16.457031 -13.484375 C 15.757812 -13.425781 15.160156 -13.925781 15.101562 -14.625 C 15.039062 -15.324219 15.542969 -15.921875 16.242188 -15.980469 L 36.773438 -17.738281 C 37.472656 -17.796875 37.972656 -18.394531 37.914062 -19.09375 L 37.1875 -27.585938 C 37.128906 -28.285156 36.480469 -28.78125 35.78125 -28.722656 L 15.300781 -26.96875 C 14.601562 -26.910156 14.007812 -27.414062 13.945312 -28.113281 C 13.886719 -28.8125 14.390625 -29.40625 15.089844 -29.46875 L 37.617188 -31.394531 C 38.316406 -31.457031 38.816406 -32.050781 38.757812 -32.75 L 37.945312 -42.242188 C 37.886719 -42.941406 37.289062 -43.441406 36.589844 -43.382812 L -0.921875 -40.171875 C -1.621094 -40.113281 -2.125 -39.515625 -2.0625 -38.816406 L 1.140625 -1.355469 C 1.203125 -0.65625 1.847656 -0.15625 2.546875 -0.21875 Z M 2.546875 -0.21875 "/></g></g></g><g fill="#ffffff" fill-opacity="1"><g transform="translate(133.983101, 199.088073)"><g><path d="M 2.503906 -0.109375 L 14.976562 -0.648438 C 15.675781 -0.679688 16.253906 -1.257812 16.222656 -1.957031 L 15.777344 -12.277344 C 15.746094 -12.976562 16.273438 -13.550781 16.972656 -13.582031 C 17.675781 -13.613281 18.25 -13.085938 18.28125 -12.382812 L 18.726562 -2.066406 C 18.757812 -1.367188 19.332031 -0.839844 20.035156 -0.867188 L 32.503906 -1.410156 C 33.207031 -1.441406 33.785156 -2.015625 33.753906 -2.71875 L 33.535156 -7.726562 C 33.507812 -8.378906 33.441406 -8.726562 33.269531 -9.269531 L 29.367188 -20.542969 C 29.136719 -21.234375 29.171875 -21.585938 29.296875 -22.144531 L 32.207031 -33.710938 C 32.335938 -34.269531 32.363281 -34.722656 32.339844 -35.273438 L 32.125 -40.28125 C 32.09375 -40.984375 31.46875 -41.507812 30.765625 -41.476562 L 18.296875 -40.9375 C 17.59375 -40.90625 17.066406 -40.332031 17.097656 -39.628906 L 17.546875 -29.3125 C 17.574219 -28.613281 17.050781 -28.035156 16.347656 -28.007812 C 15.648438 -27.976562 15.070312 -28.503906 15.042969 -29.203125 L 14.59375 -39.523438 C 14.5625 -40.222656 13.9375 -40.746094 13.238281 -40.71875 L 0.765625 -40.175781 C 0.0664062 -40.144531 -0.460938 -39.570312 -0.429688 -38.871094 L -0.214844 -33.863281 C -0.183594 -33.160156 -0.121094 -32.863281 0.0546875 -32.316406 L 3.953125 -21.046875 C 4.183594 -20.351562 4.148438 -20 4.023438 -19.441406 L 1.113281 -7.875 C 0.988281 -7.320312 0.957031 -6.867188 0.980469 -6.316406 L 1.199219 -1.304688 C 1.226562 -0.605469 1.804688 -0.078125 2.503906 -0.109375 Z M 2.503906 -0.109375 "/></g></g></g><g fill="#ffffff" fill-opacity="1"><g transform="translate(168.13441, 197.377049)"><g><path d="M 2.558594 0.0117188 L 15.039062 0.0625 C 15.742188 0.0625 16.292969 -0.484375 16.296875 -1.1875 L 16.386719 -23.496094 C 16.390625 -24.199219 16.945312 -24.746094 17.648438 -24.742188 C 18.347656 -24.742188 18.898438 -24.1875 18.894531 -23.484375 L 18.804688 -1.078125 C 18.800781 -0.425781 19.402344 0.078125 20.050781 0.0820312 L 32.585938 0.132812 C 33.238281 0.136719 33.839844 -0.363281 33.84375 -1.015625 L 33.933594 -23.425781 C 33.9375 -24.125 34.492188 -24.675781 35.191406 -24.671875 C 35.894531 -24.667969 36.445312 -24.117188 36.441406 -23.414062 L 36.351562 -1.105469 C 36.347656 -0.402344 36.945312 0.148438 37.648438 0.152344 L 50.132812 0.203125 C 50.832031 0.207031 51.386719 -0.34375 51.390625 -1.042969 L 51.542969 -38.644531 C 51.546875 -39.34375 50.945312 -39.898438 50.242188 -39.902344 L 28.988281 -39.988281 C 28.285156 -39.992188 27.734375 -39.390625 27.730469 -38.691406 L 27.703125 -31.722656 C 27.699219 -31.019531 27.144531 -30.46875 26.441406 -30.472656 C 25.742188 -30.476562 25.191406 -31.03125 25.195312 -31.730469 L 25.222656 -38.75 C 25.226562 -39.453125 24.628906 -40.003906 23.925781 -40.007812 L 2.667969 -40.09375 C 1.96875 -40.097656 1.414062 -39.546875 1.410156 -38.847656 L 1.257812 -1.25 C 1.253906 -0.546875 1.855469 0.0078125 2.558594 0.0117188 Z M 2.558594 0.0117188 "/></g></g></g><g fill="#ffffff" fill-opacity="1"><g transform="translate(219.861011, 197.773491)"><g><path d="M 2.554688 0.132812 L 15.019531 0.773438 C 15.71875 0.808594 16.300781 0.289062 16.335938 -0.414062 L 16.695312 -7.421875 C 16.734375 -8.125 17.3125 -8.644531 18.011719 -8.609375 C 18.714844 -8.574219 19.234375 -7.945312 19.199219 -7.242188 L 18.839844 -0.285156 C 18.804688 0.417969 19.375 1 20.078125 1.035156 L 32.542969 1.675781 C 33.242188 1.710938 33.824219 1.191406 33.859375 0.488281 L 35.332031 -28.097656 C 35.636719 -34.003906 31.550781 -38.53125 25.644531 -38.835938 L 13.527344 -39.460938 C 7.621094 -39.765625 3.09375 -35.683594 2.789062 -29.773438 L 1.316406 -1.1875 C 1.28125 -0.484375 1.851562 0.09375 2.554688 0.132812 Z M 18.632812 -20.625 C 17.929688 -20.660156 17.410156 -21.242188 17.445312 -21.941406 L 17.652344 -25.945312 C 17.6875 -26.648438 18.265625 -27.167969 18.96875 -27.132812 C 19.667969 -27.097656 20.191406 -26.519531 20.15625 -25.816406 L 19.949219 -21.8125 C 19.910156 -21.113281 19.332031 -20.589844 18.632812 -20.625 Z M 18.632812 -20.625 "/></g></g></g><g fill="#ffffff" fill-opacity="1"><g transform="translate(254.18221, 199.527776)"><g><path d="M 2.496094 0.222656 L 23.519531 2.109375 C 29.410156 2.636719 34.089844 -1.273438 34.617188 -7.164062 L 36.371094 -26.738281 C 36.898438 -32.628906 32.992188 -37.308594 27.097656 -37.835938 L 6.078125 -39.722656 C 5.378906 -39.785156 4.78125 -39.285156 4.71875 -38.585938 L 1.359375 -1.136719 C 1.296875 -0.4375 1.796875 0.160156 2.496094 0.222656 Z M 18.503906 -9.917969 C 17.804688 -9.980469 17.304688 -10.578125 17.367188 -11.277344 L 18.667969 -25.757812 C 18.730469 -26.457031 19.328125 -26.957031 20.027344 -26.894531 C 20.726562 -26.832031 21.226562 -26.234375 21.164062 -25.535156 L 19.867188 -11.054688 C 19.804688 -10.355469 19.203125 -9.855469 18.503906 -9.917969 Z M 18.503906 -9.917969 "/></g></g></g><g fill="#ffffff" fill-opacity="1"><g transform="translate(288.34472, 202.493312)"><g><path d="M 2.535156 0.335938 L 39.808594 5.261719 C 40.503906 5.355469 41.125 4.878906 41.214844 4.183594 L 42.464844 -5.257812 C 42.554688 -5.953125 42.03125 -6.582031 41.335938 -6.671875 L 18.972656 -9.628906 C 18.277344 -9.71875 17.800781 -10.339844 17.894531 -11.035156 C 17.984375 -11.730469 18.605469 -12.207031 19.300781 -12.113281 L 39.726562 -9.414062 C 40.421875 -9.320312 41.042969 -9.796875 41.132812 -10.492188 L 42.25 -18.941406 C 42.34375 -19.636719 41.816406 -20.261719 41.121094 -20.355469 L 20.746094 -23.046875 C 20.050781 -23.140625 19.574219 -23.757812 19.667969 -24.453125 C 19.757812 -25.148438 20.378906 -25.625 21.074219 -25.53125 L 43.488281 -22.570312 C 44.183594 -22.476562 44.804688 -22.953125 44.894531 -23.648438 L 46.144531 -33.089844 C 46.234375 -33.785156 45.761719 -34.40625 45.066406 -34.496094 L 7.742188 -39.429688 C 7.042969 -39.523438 6.425781 -39.046875 6.332031 -38.351562 L 1.40625 -1.078125 C 1.316406 -0.382812 1.839844 0.242188 2.535156 0.335938 Z M 2.535156 0.335938 "/></g></g></g><path stroke-linecap="butt" transform="matrix(0.685697, -0.0554971, 0.0554971, 0.685697, 99.9722, 206.155635)" fill="none" stroke-linejoin="miter" d="M 9.561571 13.000012 L 4.861639 13.001305 L 4.860876 4.564341 L 0.468857 4.562071 L 0.471209 1.787939 L 13.955177 1.791187 L 13.952826 4.565319 L 9.560808 4.563049 Z M 9.561571 13.000012 " stroke="#231f20" stroke-width="1.22" stroke-opacity="1" stroke-miterlimit="4"/><path stroke-linecap="butt" transform="matrix(0.686258, -0.0480607, 0.0480607, 0.686258, 109.932206, 205.343571)" fill="none" stroke-linejoin="miter" d="M 16.560678 12.999624 L 11.858942 13.00049 L 11.857108 8.475141 L 5.95425 8.477269 L 5.950419 13.002222 L 1.24908 12.997422 L 1.248485 1.789634 L 5.955885 1.789165 L 5.951658 6.319782 L 11.860181 6.31805 L 11.858743 1.787037 L 16.560479 1.786171 Z M 16.560678 12.999624 " stroke="#231f20" stroke-width="1.22" stroke-opacity="1" stroke-miterlimit="4"/><path stroke-linecap="butt" transform="matrix(0.686752, -0.0403986, 0.0403986, 0.686752, 122.230103, 204.487412)" fill="none" stroke-linejoin="miter" d="M 14.752594 13.00162 L 1.249477 12.997924 L 1.249167 1.786839 L 14.132428 1.7882 L 14.13409 4.564046 L 5.954929 4.560695 L 5.953926 6.318231 L 12.864699 6.320912 L 12.868696 8.476903 L 5.952254 8.473888 L 5.951583 10.225755 L 14.750933 10.225773 Z M 14.752594 13.00162 " stroke="#231f20" stroke-width="1.22" stroke-opacity="1" stroke-miterlimit="4"/><path stroke-linecap="butt" transform="matrix(0.687311, -0.0293766, 0.0293766, 0.687311, 135.620386, 203.697584)" fill="none" stroke-linejoin="miter" d="M 18.882531 13.000287 L 14.961119 12.997498 L 12.197534 5.718324 L 9.431093 12.99984 L 5.50944 13.002724 L 0.11743 1.797661 L 4.880145 1.796624 L 7.696146 8.913221 L 10.711325 1.795788 L 13.677973 1.797552 L 16.693015 8.91129 L 19.509154 1.796716 L 24.271868 1.795679 Z M 18.882531 13.000287 " stroke="#231f20" stroke-width="1.22" stroke-opacity="1" stroke-miterlimit="4"/><path stroke-linecap="butt" transform="matrix(0.687653, -0.0198178, 0.0198178, 0.687653, 152.476914, 202.995558)" fill="none" stroke-linejoin="miter" d="M 8.473838 13.242091 C 5.707415 13.241892 3.667484 12.671853 2.35972 11.532137 C 1.201605 10.521706 0.627872 9.141839 0.627007 7.397885 C 0.625978 5.659607 1.205258 4.284566 2.359172 3.2726 C 3.664419 2.134342 5.703174 1.562557 8.475272 1.562919 C 11.247371 1.563282 13.287302 2.133321 14.595066 3.273037 C 15.747506 4.283305 16.327077 5.657659 16.328106 7.395937 C 16.328808 9.145567 15.749528 10.520608 14.595614 11.532574 C 13.284691 12.670668 11.245936 13.242454 8.473838 13.242091 Z M 8.475231 10.23712 C 9.61138 10.23578 10.444518 9.907596 10.974482 9.258245 C 11.404357 8.730981 11.615329 8.112201 11.618912 7.396554 C 11.616655 6.686421 11.401612 6.066724 10.97913 5.548979 C 10.447058 4.891743 9.610191 4.560875 8.474043 4.562215 C 7.34357 4.563719 6.504756 4.891739 5.968953 5.546602 C 5.539241 6.06819 5.328269 6.686971 5.330526 7.397105 C 5.326943 8.112751 5.541986 8.732448 5.96998 9.256032 C 6.507892 9.907756 7.339246 10.232784 8.475231 10.23712 Z M 8.475231 10.23712 " stroke="#231f20" stroke-width="1.22" stroke-opacity="1" stroke-miterlimit="4"/><path stroke-linecap="butt" transform="matrix(0.687836, -0.0119232, 0.0119232, 0.687836, 164.210648, 202.657429)" fill="none" stroke-linejoin="miter" d="M 16.556645 13.000669 L 12.110008 12.997417 C 11.904671 12.721264 11.76326 12.361032 11.68 11.922303 C 11.606324 11.585962 11.498583 11.24903 11.350806 10.928442 C 11.203127 10.602177 10.952273 10.330913 10.598241 10.114651 C 10.238533 9.898291 9.71241 9.781269 9.008518 9.763389 L 5.953125 9.767216 L 5.953901 12.998607 L 1.251587 13.002281 L 1.247147 1.791767 L 8.896887 1.788073 C 10.725483 1.791375 12.199721 1.924832 13.325083 2.199896 C 14.444768 2.474862 15.266476 2.903676 15.778851 3.486142 C 16.296806 4.074383 16.556131 4.83987 16.556827 5.782604 C 16.5546 6.566274 16.378443 7.227669 16.017 7.766592 C 15.661333 8.299936 15.097376 8.727447 14.325326 9.037769 C 15.075295 9.34608 15.557346 9.712216 15.777059 10.141953 C 15.996771 10.57169 16.136214 11.045468 16.189709 11.563189 C 16.238609 12.01836 16.360921 12.49752 16.556645 13.000669 Z M 5.955633 7.001564 L 8.641999 6.99134 C 9.391605 6.992976 9.982836 6.957792 10.415593 6.891466 C 10.84835 6.82514 11.168053 6.728459 11.368826 6.612679 C 11.575277 6.496998 11.70812 6.368682 11.767452 6.222056 C 11.821008 6.081008 11.851954 5.933889 11.848933 5.780503 C 11.851492 5.632892 11.825763 5.479111 11.765772 5.336095 C 11.70588 5.187402 11.577466 5.060237 11.369373 4.943049 C 11.166957 4.825959 10.844923 4.729512 10.41443 4.665259 C 9.984034 4.595329 9.388307 4.562287 8.638701 4.560651 L 5.952434 4.565198 Z M 5.955633 7.001564 " stroke="#231f20" stroke-width="1.22" stroke-opacity="1" stroke-miterlimit="4"/><path stroke-linecap="butt" transform="matrix(0.687924, -0.00456017, 0.00456017, 0.687924, 176.098251, 202.456379)" fill="none" stroke-linejoin="miter" d="M 14.33587 13.002797 L 1.247357 13.001209 L 1.24788 1.786534 L 5.955187 1.789347 L 5.950358 10.227296 L 14.337242 10.226108 Z M 14.33587 13.002797 " stroke="#231f20" stroke-width="1.22" stroke-opacity="1" stroke-miterlimit="4"/><path stroke-linecap="butt" transform="matrix(0.687932, 0.00298048, -0.00298048, 0.687932, 186.247696, 202.383253)" fill="none" stroke-linejoin="miter" d="M 8.747384 12.998716 L 1.252115 13.002798 L 1.248954 1.788274 L 8.749925 1.789846 C 11.81617 1.787918 14.021207 2.221268 15.364988 3.078539 C 16.452538 3.772252 17.069861 4.712166 17.216981 5.903961 C 17.287357 6.420376 17.317913 6.91993 17.319979 7.396893 C 17.322046 7.873857 17.290117 8.368003 17.224218 8.885009 C 17.158344 9.407693 16.984486 9.908132 16.70267 10.392004 C 16.420879 10.881554 15.9742 11.320714 15.362634 11.709485 C 14.751092 12.103933 13.912056 12.414194 12.845549 12.645944 C 11.784746 12.883348 10.416781 12.997162 8.747384 12.998716 Z M 8.303815 10.223975 C 10.694361 10.224975 12.048854 9.62289 12.36159 8.412069 C 12.445311 8.07669 12.483581 7.735829 12.48213 7.400819 C 12.486308 7.054427 12.439406 6.713936 12.352783 6.379295 C 12.271837 6.044629 12.088809 5.738796 11.809399 5.467451 C 11.529964 5.190428 11.114501 4.970776 10.55733 4.808521 C 10.000159 4.646266 9.244597 4.564365 8.302001 4.562771 L 5.951202 4.561599 L 5.953041 10.228482 Z M 8.303815 10.223975 " stroke="#231f20" stroke-width="1.22" stroke-opacity="1" stroke-miterlimit="4"/><path stroke-linecap="butt" transform="matrix(0.687857, 0.0106346, -0.0106346, 0.687857, 201.396306, 202.485061)" fill="none" stroke-linejoin="miter" d="M 1.25175 1.79121 L 5.953786 1.786661 L 5.951143 13.002474 L 1.249019 13.001346 Z M 1.25175 1.79121 " stroke="#231f20" stroke-width="1.22" stroke-opacity="1" stroke-miterlimit="4"/><path stroke-linecap="butt" transform="matrix(0.687759, 0.0157307, -0.0157307, 0.687759, 206.400109, 202.552883)" fill="none" stroke-linejoin="miter" d="M 7.405746 13.242959 C 5.889286 13.243565 4.670056 13.078343 3.742509 12.753098 C 2.814961 12.427853 2.111756 11.978203 1.627346 11.409955 C 1.142935 10.841708 0.815525 10.184674 0.650792 9.438724 L 5.643216 9.438129 C 6.013183 9.969237 6.598569 10.234152 7.405052 10.232745 C 8.211664 10.237014 8.801875 9.967929 9.17027 9.436973 C 9.203161 9.385103 9.219153 9.3393 9.218244 9.299563 C 9.220674 9.157516 9.030746 9.048266 8.660072 8.982908 C 8.289268 8.911874 7.731393 8.856478 6.992252 8.822267 C 6.059844 8.781117 5.080593 8.678562 4.054761 8.525955 C 1.769052 8.169297 0.62351 7.252672 0.623552 5.764595 C 0.626373 5.639578 0.63474 5.508754 0.648524 5.366447 C 0.813299 4.62432 1.13897 3.963708 1.625796 3.395964 C 2.106816 2.822674 2.81789 2.374754 3.741989 2.052595 C 4.671634 1.724629 5.889011 1.560473 7.405471 1.559866 C 8.922061 1.564936 10.141162 1.724481 11.068709 2.049726 C 11.996256 2.374972 12.705138 2.824491 13.189548 3.392739 C 13.674089 3.966663 13.995822 4.623827 14.166232 5.369647 L 9.173678 5.364565 C 8.803711 4.833458 8.212648 4.568672 7.406166 4.57008 C 6.599683 4.571487 6.009342 4.834895 5.640948 5.365852 C 5.613473 5.406238 5.603029 5.446234 5.603937 5.485971 C 5.601117 5.610989 5.779302 5.703468 6.138493 5.763408 C 6.492007 5.823479 7.021369 5.873848 7.715226 5.914774 C 8.409083 5.955701 9.149003 6.023972 9.934986 6.119589 C 10.726515 6.209398 11.457289 6.374433 12.144077 6.602951 C 12.830995 6.837146 13.366979 7.177026 13.752288 7.633947 C 14.049851 7.979281 14.202026 8.424495 14.202877 8.958366 C 14.200706 9.111767 14.187312 9.271104 14.162693 9.436378 C 13.998048 10.184181 13.672247 10.839117 13.185551 11.412537 C 12.704401 11.98015 11.999004 12.42794 11.069358 12.755906 C 10.14526 13.078065 8.922207 13.242352 7.405746 13.242959 Z M 7.405746 13.242959 " stroke="#231f20" stroke-width="1.22" stroke-opacity="1" stroke-miterlimit="4"/><path stroke-linecap="butt" transform="matrix(0.687486, 0.0249645, -0.0249645, 0.687486, 219.416256, 202.864031)" fill="none" stroke-linejoin="miter" d="M 10.934995 12.999836 L 6.23604 13.00001 L 6.23631 7.68739 L 0.118632 1.790094 L 5.328906 1.788399 L 8.587104 5.141748 L 11.83481 1.790793 L 17.045084 1.789098 L 10.935265 7.687216 Z M 10.934995 12.999836 " stroke="#231f20" stroke-width="1.22" stroke-opacity="1" stroke-miterlimit="4"/><path stroke-linecap="butt" transform="matrix(0.687154, 0.0328506, -0.0328506, 0.687154, 231.292065, 203.296218)" fill="none" stroke-linejoin="miter" d="M 8.479348 13.244499 C 5.705043 13.240697 3.665532 12.673092 2.360271 11.530341 C 1.203582 10.522603 0.625884 9.140421 0.622317 7.40108 C 0.624422 5.661468 1.201064 4.286632 2.357916 3.2763 C 3.66761 2.133599 5.703937 1.564421 8.477971 1.562551 C 11.246333 1.560952 13.286115 2.134229 14.591104 3.271309 C 15.748064 4.284718 16.325492 5.661229 16.329059 7.40057 C 16.327225 9.145854 15.750582 10.52069 14.593731 11.531021 C 13.284037 12.673722 11.24771 13.2429 8.479348 13.244499 Z M 8.477433 10.231711 C 9.614488 10.234199 10.446016 9.910213 10.97769 9.25948 C 11.401623 8.733277 11.616495 8.114744 11.616361 7.398481 C 11.616226 6.682218 11.404905 6.067006 10.976455 5.547445 C 10.444806 4.8907 9.610455 4.561083 8.479343 4.563996 C 7.342288 4.561508 6.50536 4.891437 5.968285 5.548112 C 5.54408 6.068644 5.329209 6.687177 5.329072 7.397768 C 5.329206 8.114031 5.540527 8.729243 5.96952 9.260148 C 6.506569 9.91095 7.34065 10.234895 8.477433 10.231711 Z M 8.477433 10.231711 " stroke="#231f20" stroke-width="1.22" stroke-opacity="1" stroke-miterlimit="4"/><path stroke-linecap="butt" transform="matrix(0.686751, 0.0404112, -0.0404112, 0.686751, 243.014021, 203.859083)" fill="none" stroke-linejoin="miter" d="M 7.880358 13.244831 C 5.149859 13.240552 3.222593 12.677087 2.108897 11.536762 C 1.171258 10.585157 0.703421 9.207747 0.705384 7.40453 L 0.70527 1.796154 L 5.403702 1.798392 L 5.403817 7.406768 C 5.404166 8.186006 5.53722 8.803858 5.802977 9.260325 C 6.182439 9.909182 6.878324 10.232266 7.885298 10.23558 C 8.897607 10.232892 9.595146 9.907445 9.966579 9.259907 C 10.234651 8.789091 10.369013 8.172567 10.369331 7.404666 L 10.369216 1.79629 L 15.067649 1.798528 L 15.071433 7.469257 C 15.072469 9.226792 14.606354 10.585216 13.672756 11.538859 C 12.55077 12.674228 10.621861 13.242774 7.880358 13.244831 Z M 7.880358 13.244831 " stroke="#231f20" stroke-width="1.22" stroke-opacity="1" stroke-miterlimit="4"/><path stroke-linecap="butt" transform="matrix(0.686261, 0.0480192, -0.0480192, 0.686261, 253.919724, 204.498517)" fill="none" stroke-linejoin="miter" d="M 16.554601 12.999993 L 12.108949 12.998001 C 11.90708 12.716138 11.762763 12.361944 11.680869 11.923692 C 11.605712 11.581734 11.497363 11.253483 11.349363 10.928006 C 11.207027 10.602133 10.954575 10.329502 10.598068 10.115381 C 10.241165 9.895595 9.709344 9.779121 9.00827 9.765564 L 5.951456 9.763157 L 5.956068 13.001626 L 1.248668 13.000873 L 1.249544 1.787421 L 8.899678 1.787179 C 10.727048 1.790231 12.199431 1.926273 13.322887 2.200571 C 14.446343 2.474869 15.267377 2.901246 15.780719 3.485762 C 16.294458 4.075943 16.552673 4.83769 16.556159 5.782331 C 16.554212 6.567973 16.378486 7.229166 16.017653 7.766701 C 15.662485 8.30384 15.099948 8.724571 14.330836 9.040223 C 15.075178 9.346741 15.556466 9.717202 15.779969 10.145545 C 15.997807 10.574284 16.133455 11.048619 16.186515 11.562885 C 16.241277 12.020111 16.360328 12.5013 16.554601 12.999993 Z M 5.951815 7.002475 L 8.643337 6.990598 C 9.388933 6.989655 9.984481 6.959367 10.412197 6.889595 C 10.845973 6.82509 11.163689 6.728862 11.371799 6.611842 C 11.574246 6.495219 11.707531 6.366359 11.765595 6.219995 C 11.824054 6.079294 11.853796 5.934911 11.848759 5.781578 C 11.849386 5.627848 11.822088 5.481764 11.766469 5.337662 C 11.710452 5.187895 11.576325 5.06067 11.368957 4.944263 C 11.166857 4.821794 10.847391 4.730307 10.415827 4.663739 C 9.984263 4.597171 9.390019 4.564754 8.638362 4.560429 L 5.951713 4.560581 Z M 5.951815 7.002475 " stroke="#231f20" stroke-width="1.22" stroke-opacity="1" stroke-miterlimit="4"/><path stroke-linecap="butt" transform="matrix(0.685704, 0.0554034, -0.0554034, 0.685704, 265.780065, 205.333362)" fill="none" stroke-linejoin="miter" d="M 7.40643 13.242612 C 5.890876 13.239738 4.670431 13.081996 3.743723 12.752406 C 2.817472 12.428476 2.108922 11.97872 1.624191 11.408338 C 1.139459 10.837957 0.812916 10.180737 0.65022 9.436222 L 5.640629 9.437473 C 6.008506 9.971723 6.599175 10.23162 7.408347 10.234601 C 8.211402 10.232379 8.799618 9.968378 9.172538 9.436938 C 9.202381 9.383256 9.221361 9.336149 9.21816 9.296531 C 9.218047 9.154123 9.032992 9.049444 8.662994 8.982495 C 8.286879 8.910344 7.730109 8.858486 6.992228 8.821261 C 6.060085 8.776945 5.078092 8.679691 4.05711 8.522922 C 1.766747 8.166792 0.627432 7.250531 0.626933 5.763733 C 0.622532 5.638761 0.634653 5.506758 0.646317 5.369095 C 0.813716 4.620695 1.142617 3.967484 1.625988 3.392939 C 2.109816 2.824054 2.81403 2.374083 3.744747 2.048229 C 4.669804 1.722831 5.89294 1.561341 7.408493 1.564215 C 8.92359 1.561429 10.144492 1.724831 11.070743 2.048761 C 11.997452 2.378351 12.705544 2.822448 13.184615 3.393287 C 13.669347 3.963668 13.99589 4.620888 14.164246 5.364946 L 9.174295 5.369354 C 8.800757 4.835562 8.215291 4.569548 7.406576 4.572226 C 6.597404 4.569245 6.009188 4.833246 5.642385 5.369889 C 5.61683 5.406134 5.603052 5.447124 5.600593 5.4872 C 5.598877 5.606969 5.777358 5.700786 6.135579 5.762989 C 6.493343 5.819533 7.021814 5.873678 7.714418 5.914561 C 8.412681 5.954987 9.152849 6.02051 9.93538 6.116791 C 10.72357 6.212614 11.460192 6.375268 12.145248 6.604752 C 12.83076 6.839896 13.365117 7.1784 13.749232 7.631583 C 14.051081 7.983177 14.20086 8.426811 14.204227 8.962028 C 14.204797 9.110096 14.189303 9.270856 14.162946 9.43819 C 13.99509 10.180929 13.672306 10.839343 13.188478 11.408228 C 12.705107 11.982773 11.994776 12.427541 11.069719 12.752939 C 10.144662 13.078336 8.921526 13.239826 7.40643 13.242612 Z M 7.40643 13.242612 " stroke="#231f20" stroke-width="1.22" stroke-opacity="1" stroke-miterlimit="4"/><g fill="#ffffff" fill-opacity="1"><g transform="translate(100.693661, 215.069693)"><g><path d="M 6.5625 -0.53125 L 3.328125 -0.265625 L 2.859375 -6.046875 L -0.140625 -5.8125 L -0.296875 -7.703125 L 8.9375 -8.453125 L 9.09375 -6.5625 L 6.09375 -6.3125 Z M 6.5625 -0.53125 "/></g></g></g><g fill="#ffffff" fill-opacity="1"><g transform="translate(110.556995, 214.264926)"><g><path d="M 11.359375 -0.796875 L 8.140625 -0.5625 L 7.921875 -3.671875 L 3.859375 -3.390625 L 4.078125 -0.28125 L 0.859375 -0.0625 L 0.328125 -7.75 L 3.546875 -7.96875 L 3.75 -4.859375 L 7.8125 -5.140625 L 7.609375 -8.25 L 10.828125 -8.484375 Z M 11.359375 -0.796875 "/></g></g></g><g fill="#ffffff" fill-opacity="1"><g transform="translate(122.755284, 213.415184)"><g><path d="M 10.125 -0.59375 L 0.859375 -0.046875 L 0.40625 -7.734375 L 9.25 -8.265625 L 9.359375 -6.359375 L 3.75 -6.015625 L 3.828125 -4.8125 L 8.5625 -5.09375 L 8.640625 -3.625 L 3.90625 -3.34375 L 3.984375 -2.140625 L 10.015625 -2.5 Z M 10.125 -0.59375 "/></g></g></g><g fill="#ffffff" fill-opacity="1"><g transform="translate(133.299603, 212.807645)"><g/></g></g><g fill="#ffffff" fill-opacity="1"><g transform="translate(136.002282, 212.632632)"><g><path d="M 12.96875 -0.546875 L 10.265625 -0.4375 L 8.171875 -5.359375 L 6.484375 -0.28125 L 3.78125 -0.15625 L -0.25 -7.703125 L 3.03125 -7.84375 L 5.171875 -3.03125 L 7.03125 -8.015625 L 9.0625 -8.109375 L 11.34375 -3.296875 L 13.0625 -8.28125 L 16.34375 -8.421875 Z M 12.96875 -0.546875 "/></g></g></g><g fill="#ffffff" fill-opacity="1"><g transform="translate(152.734545, 211.935051)"><g><path d="M 5.828125 0 C 3.921875 0.0625 2.507812 -0.289062 1.59375 -1.0625 C 0.78125 -1.726562 0.359375 -2.660156 0.328125 -3.859375 C 0.296875 -5.054688 0.664062 -6.015625 1.4375 -6.734375 C 2.3125 -7.535156 3.703125 -7.96875 5.609375 -8.03125 C 7.515625 -8.082031 8.925781 -7.726562 9.84375 -6.96875 C 10.65625 -6.300781 11.078125 -5.367188 11.109375 -4.171875 C 11.140625 -2.972656 10.769531 -2.015625 10 -1.296875 C 9.125 -0.484375 7.734375 -0.0507812 5.828125 0 Z M 5.765625 -2.078125 C 6.546875 -2.097656 7.113281 -2.335938 7.46875 -2.796875 C 7.75 -3.160156 7.882812 -3.585938 7.875 -4.078125 C 7.863281 -4.578125 7.707031 -5 7.40625 -5.34375 C 7.019531 -5.78125 6.4375 -5.988281 5.65625 -5.96875 C 4.875 -5.945312 4.3125 -5.707031 3.96875 -5.25 C 3.675781 -4.882812 3.535156 -4.453125 3.546875 -3.953125 C 3.554688 -3.460938 3.71875 -3.046875 4.03125 -2.703125 C 4.40625 -2.265625 4.984375 -2.054688 5.765625 -2.078125 Z M 5.765625 -2.078125 "/></g></g></g><g fill="#ffffff" fill-opacity="1"><g transform="translate(164.365649, 211.599291)"><g><path d="M 11.375 -0.203125 L 8.328125 -0.140625 C 8.179688 -0.335938 8.078125 -0.582031 8.015625 -0.875 C 7.960938 -1.113281 7.882812 -1.34375 7.78125 -1.5625 C 7.675781 -1.78125 7.5 -1.960938 7.25 -2.109375 C 7.007812 -2.253906 6.644531 -2.328125 6.15625 -2.328125 L 4.0625 -2.296875 L 4.09375 -0.078125 L 0.859375 -0.015625 L 0.71875 -7.71875 L 5.984375 -7.8125 C 7.234375 -7.832031 8.242188 -7.753906 9.015625 -7.578125 C 9.796875 -7.398438 10.363281 -7.113281 10.71875 -6.71875 C 11.082031 -6.332031 11.269531 -5.816406 11.28125 -5.171875 C 11.289062 -4.628906 11.175781 -4.171875 10.9375 -3.796875 C 10.707031 -3.421875 10.328125 -3.117188 9.796875 -2.890625 C 10.316406 -2.691406 10.65625 -2.441406 10.8125 -2.140625 C 10.96875 -1.847656 11.066406 -1.523438 11.109375 -1.171875 C 11.148438 -0.859375 11.238281 -0.535156 11.375 -0.203125 Z M 4.015625 -4.203125 L 5.859375 -4.234375 C 6.378906 -4.234375 6.785156 -4.257812 7.078125 -4.3125 C 7.378906 -4.363281 7.597656 -4.429688 7.734375 -4.515625 C 7.878906 -4.609375 7.96875 -4.703125 8 -4.796875 C 8.039062 -4.898438 8.054688 -5.003906 8.046875 -5.109375 C 8.046875 -5.210938 8.023438 -5.3125 7.984375 -5.40625 C 7.953125 -5.507812 7.863281 -5.597656 7.71875 -5.671875 C 7.582031 -5.742188 7.363281 -5.800781 7.0625 -5.84375 C 6.769531 -5.882812 6.363281 -5.90625 5.84375 -5.90625 L 4 -5.875 Z M 4.015625 -4.203125 "/></g></g></g><g fill="#ffffff" fill-opacity="1"><g transform="translate(176.157533, 211.399388)"><g><path d="M 9.859375 -0.0625 L 0.859375 0 L 0.8125 -7.703125 L 4.046875 -7.734375 L 4.078125 -1.9375 L 9.84375 -1.96875 Z M 9.859375 -0.0625 "/></g></g></g><g fill="#ffffff" fill-opacity="1"><g transform="translate(186.20895, 211.326374)"><g><path d="M 6.015625 0.03125 L 0.859375 0 L 0.890625 -7.703125 L 6.046875 -7.671875 C 8.148438 -7.660156 9.664062 -7.363281 10.59375 -6.78125 C 11.34375 -6.300781 11.765625 -5.648438 11.859375 -4.828125 C 11.898438 -4.472656 11.921875 -4.128906 11.921875 -3.796875 C 11.921875 -3.472656 11.898438 -3.132812 11.859375 -2.78125 C 11.816406 -2.425781 11.691406 -2.082031 11.484375 -1.75 C 11.285156 -1.414062 10.976562 -1.113281 10.5625 -0.84375 C 10.144531 -0.570312 9.566406 -0.359375 8.828125 -0.203125 C 8.097656 -0.046875 7.160156 0.03125 6.015625 0.03125 Z M 5.71875 -1.875 C 7.363281 -1.875 8.296875 -2.289062 8.515625 -3.125 C 8.566406 -3.351562 8.59375 -3.582031 8.59375 -3.8125 C 8.59375 -4.050781 8.5625 -4.285156 8.5 -4.515625 C 8.445312 -4.753906 8.328125 -4.96875 8.140625 -5.15625 C 7.953125 -5.34375 7.664062 -5.488281 7.28125 -5.59375 C 6.90625 -5.707031 6.390625 -5.765625 5.734375 -5.765625 L 4.125 -5.78125 L 4.109375 -1.890625 Z M 5.71875 -1.875 "/></g></g></g><g fill="#ffffff" fill-opacity="1"><g transform="translate(198.536736, 211.397462)"><g/></g></g><g fill="#ffffff" fill-opacity="1"><g transform="translate(201.258056, 211.427198)"><g><path d="M 4.09375 0.0625 L 0.859375 0.015625 L 0.984375 -7.6875 L 4.21875 -7.640625 Z M 4.09375 0.0625 "/></g></g></g><g fill="#ffffff" fill-opacity="1"><g transform="translate(206.19561, 211.493749)"><g><path d="M 5.09375 0.28125 C 4.050781 0.257812 3.210938 0.128906 2.578125 -0.109375 C 1.941406 -0.347656 1.460938 -0.664062 1.140625 -1.0625 C 0.816406 -1.46875 0.609375 -1.925781 0.515625 -2.4375 L 3.9375 -2.359375 C 4.1875 -1.992188 4.585938 -1.804688 5.140625 -1.796875 C 5.691406 -1.773438 6.101562 -1.945312 6.375 -2.3125 C 6.394531 -2.34375 6.40625 -2.375 6.40625 -2.40625 C 6.40625 -2.5 6.273438 -2.570312 6.015625 -2.625 C 5.753906 -2.6875 5.375 -2.734375 4.875 -2.765625 C 4.226562 -2.804688 3.554688 -2.890625 2.859375 -3.015625 C 1.296875 -3.285156 0.523438 -3.929688 0.546875 -4.953125 C 0.546875 -5.046875 0.554688 -5.140625 0.578125 -5.234375 C 0.703125 -5.742188 0.929688 -6.191406 1.265625 -6.578125 C 1.609375 -6.960938 2.097656 -7.257812 2.734375 -7.46875 C 3.378906 -7.675781 4.222656 -7.769531 5.265625 -7.75 C 6.304688 -7.71875 7.144531 -7.582031 7.78125 -7.34375 C 8.414062 -7.101562 8.894531 -6.785156 9.21875 -6.390625 C 9.539062 -5.992188 9.753906 -5.539062 9.859375 -5.03125 L 6.4375 -5.109375 C 6.175781 -5.472656 5.769531 -5.664062 5.21875 -5.6875 C 4.664062 -5.695312 4.257812 -5.519531 4 -5.15625 C 3.976562 -5.125 3.96875 -5.097656 3.96875 -5.078125 C 3.957031 -4.984375 4.078125 -4.914062 4.328125 -4.875 C 4.578125 -4.832031 4.9375 -4.789062 5.40625 -4.75 C 5.882812 -4.707031 6.394531 -4.648438 6.9375 -4.578125 C 7.476562 -4.503906 7.984375 -4.378906 8.453125 -4.203125 C 8.921875 -4.035156 9.28125 -3.789062 9.53125 -3.46875 C 9.738281 -3.226562 9.835938 -2.925781 9.828125 -2.5625 C 9.828125 -2.457031 9.816406 -2.347656 9.796875 -2.234375 C 9.660156 -1.722656 9.421875 -1.269531 9.078125 -0.875 C 8.742188 -0.488281 8.253906 -0.191406 7.609375 0.015625 C 6.972656 0.222656 6.132812 0.3125 5.09375 0.28125 Z M 5.09375 0.28125 "/></g></g></g><g fill="#ffffff" fill-opacity="1"><g transform="translate(216.378704, 211.738415)"><g/></g></g><g fill="#ffffff" fill-opacity="1"><g transform="translate(219.091718, 211.801345)"><g><path d="M 7.515625 0.265625 L 4.28125 0.15625 L 4.40625 -3.5 L 0.359375 -7.703125 L 3.9375 -7.578125 L 6.109375 -5.1875 L 8.421875 -7.40625 L 11.984375 -7.28125 L 7.640625 -3.390625 Z M 7.515625 0.265625 "/></g></g></g><g fill="#ffffff" fill-opacity="1"><g transform="translate(230.865007, 212.229221)"><g><path d="M 5.8125 0.453125 C 3.90625 0.359375 2.523438 -0.101562 1.671875 -0.9375 C 0.910156 -1.664062 0.5625 -2.628906 0.625 -3.828125 C 0.675781 -5.023438 1.113281 -5.953125 1.9375 -6.609375 C 2.875 -7.335938 4.296875 -7.65625 6.203125 -7.5625 C 8.097656 -7.46875 9.472656 -7.015625 10.328125 -6.203125 C 11.085938 -5.472656 11.441406 -4.507812 11.390625 -3.3125 C 11.328125 -2.113281 10.882812 -1.1875 10.0625 -0.53125 C 9.125 0.21875 7.707031 0.546875 5.8125 0.453125 Z M 5.921875 -1.625 C 6.691406 -1.59375 7.269531 -1.789062 7.65625 -2.21875 C 7.96875 -2.5625 8.132812 -2.976562 8.15625 -3.46875 C 8.175781 -3.96875 8.050781 -4.398438 7.78125 -4.765625 C 7.4375 -5.234375 6.878906 -5.484375 6.109375 -5.515625 C 5.328125 -5.554688 4.742188 -5.359375 4.359375 -4.921875 C 4.035156 -4.585938 3.863281 -4.171875 3.84375 -3.671875 C 3.820312 -3.179688 3.953125 -2.75 4.234375 -2.375 C 4.578125 -1.914062 5.140625 -1.664062 5.921875 -1.625 Z M 5.921875 -1.625 "/></g></g></g><g fill="#ffffff" fill-opacity="1"><g transform="translate(242.488676, 212.786845)"><g><path d="M 5.390625 0.484375 C 3.515625 0.378906 2.222656 -0.0859375 1.515625 -0.921875 C 0.898438 -1.609375 0.628906 -2.570312 0.703125 -3.8125 L 0.9375 -7.65625 L 4.171875 -7.46875 L 3.9375 -3.625 C 3.90625 -3.09375 3.972656 -2.664062 4.140625 -2.34375 C 4.378906 -1.875 4.835938 -1.625 5.515625 -1.59375 C 6.210938 -1.550781 6.707031 -1.742188 7 -2.171875 C 7.195312 -2.484375 7.304688 -2.898438 7.328125 -3.421875 L 7.5625 -7.265625 L 10.796875 -7.078125 L 10.5625 -3.1875 C 10.488281 -1.976562 10.117188 -1.066406 9.453125 -0.453125 C 8.628906 0.285156 7.273438 0.597656 5.390625 0.484375 Z M 5.390625 0.484375 "/></g></g></g><g fill="#ffffff" fill-opacity="1"><g transform="translate(253.295474, 213.419909)"><g><path d="M 11.34375 0.796875 L 8.3125 0.578125 C 8.175781 0.367188 8.09375 0.117188 8.0625 -0.171875 C 8.03125 -0.410156 7.972656 -0.644531 7.890625 -0.875 C 7.804688 -1.113281 7.644531 -1.3125 7.40625 -1.46875 C 7.175781 -1.632812 6.816406 -1.738281 6.328125 -1.78125 L 4.234375 -1.9375 L 4.078125 0.28125 L 0.859375 0.0625 L 1.390625 -7.625 L 6.640625 -7.265625 C 7.890625 -7.171875 8.890625 -7.003906 9.640625 -6.765625 C 10.398438 -6.523438 10.941406 -6.191406 11.265625 -5.765625 C 11.597656 -5.335938 11.738281 -4.800781 11.6875 -4.15625 C 11.65625 -3.613281 11.503906 -3.164062 11.234375 -2.8125 C 10.960938 -2.46875 10.550781 -2.207031 10 -2.03125 C 10.507812 -1.789062 10.828125 -1.515625 10.953125 -1.203125 C 11.085938 -0.898438 11.15625 -0.566406 11.15625 -0.203125 C 11.175781 0.109375 11.238281 0.441406 11.34375 0.796875 Z M 4.359375 -3.828125 L 6.203125 -3.6875 C 6.722656 -3.65625 7.132812 -3.648438 7.4375 -3.671875 C 7.738281 -3.703125 7.960938 -3.753906 8.109375 -3.828125 C 8.253906 -3.898438 8.347656 -3.984375 8.390625 -4.078125 C 8.429688 -4.179688 8.457031 -4.285156 8.46875 -4.390625 C 8.476562 -4.492188 8.46875 -4.59375 8.4375 -4.6875 C 8.40625 -4.789062 8.320312 -4.882812 8.1875 -4.96875 C 8.050781 -5.0625 7.835938 -5.140625 7.546875 -5.203125 C 7.253906 -5.273438 6.847656 -5.328125 6.328125 -5.359375 L 4.484375 -5.5 Z M 4.359375 -3.828125 "/></g></g></g><g fill="#ffffff" fill-opacity="1"><g transform="translate(265.059821, 214.247517)"><g><path d="M 5.0625 0.578125 C 4.019531 0.492188 3.191406 0.3125 2.578125 0.03125 C 1.960938 -0.238281 1.503906 -0.582031 1.203125 -1 C 0.910156 -1.425781 0.726562 -1.894531 0.65625 -2.40625 L 4.0625 -2.125 C 4.289062 -1.75 4.679688 -1.539062 5.234375 -1.5 C 5.785156 -1.445312 6.207031 -1.585938 6.5 -1.921875 C 6.519531 -1.953125 6.53125 -1.984375 6.53125 -2.015625 C 6.539062 -2.109375 6.414062 -2.191406 6.15625 -2.265625 C 5.90625 -2.335938 5.53125 -2.40625 5.03125 -2.46875 C 4.382812 -2.550781 3.710938 -2.675781 3.015625 -2.84375 C 1.484375 -3.207031 0.757812 -3.898438 0.84375 -4.921875 C 0.84375 -5.015625 0.851562 -5.109375 0.875 -5.203125 C 1.03125 -5.703125 1.285156 -6.132812 1.640625 -6.5 C 2.003906 -6.863281 2.515625 -7.128906 3.171875 -7.296875 C 3.828125 -7.460938 4.675781 -7.503906 5.71875 -7.421875 C 6.757812 -7.335938 7.582031 -7.160156 8.1875 -6.890625 C 8.800781 -6.617188 9.257812 -6.273438 9.5625 -5.859375 C 9.863281 -5.441406 10.050781 -4.972656 10.125 -4.453125 L 6.71875 -4.71875 C 6.488281 -5.101562 6.097656 -5.320312 5.546875 -5.375 C 4.992188 -5.414062 4.570312 -5.265625 4.28125 -4.921875 C 4.257812 -4.890625 4.25 -4.863281 4.25 -4.84375 C 4.238281 -4.75 4.351562 -4.671875 4.59375 -4.609375 C 4.84375 -4.554688 5.203125 -4.492188 5.671875 -4.421875 C 6.148438 -4.359375 6.65625 -4.273438 7.1875 -4.171875 C 7.71875 -4.066406 8.210938 -3.910156 8.671875 -3.703125 C 9.128906 -3.503906 9.476562 -3.238281 9.71875 -2.90625 C 9.90625 -2.65625 9.984375 -2.347656 9.953125 -1.984375 C 9.953125 -1.878906 9.9375 -1.769531 9.90625 -1.65625 C 9.75 -1.164062 9.488281 -0.734375 9.125 -0.359375 C 8.757812 0.00390625 8.25 0.269531 7.59375 0.4375 C 6.945312 0.613281 6.101562 0.660156 5.0625 0.578125 Z M 5.0625 0.578125 "/></g></g></g></svg>